# xmcd
#
# Track frame offsets: 
#        150
#        11725
#        45353
#        60830
#        93218
#        121870
#        140435
#        154860
#        171078
#        186648
#        207575
#        223185
#        237168
#        251605
#        265580
#        280220
#        292473
#        307850
#        322458
#
# Disc length: 4488 seconds
#
# Revision: 2
# Processed by: cddbd v1.5.2PL0 Copyright (c) Steve Scherf et al.
# Submitted via: ExactAudioCopyFreeDBPlugin 1.0
#
DISCID=20118613
DTITLE=The Jackson 5 - Soulsation!:  25th Anniversary Collection [box 
DTITLE=set]
DYEAR=1995
DGENRE=Soul
TTITLE0=The Life of the Party
TTITLE1=I Am Love, Parts 1 and 2
TTITLE2=If I Don't Love You This Way
TTITLE3=Mama I Gotta a Brand New Thing (Don't Say No)
TTITLE4=Forever Came Today
TTITLE5=Body Language (Do the Love Dance)
TTITLE6=All I Do is Think of You
TTITLE7=It's a Moving Violation
TTITLE8=(You Were Made) Especially for Me
TTITLE9=Honey Love
TTITLE10=That's How Love Goes
TTITLE11=Daddy's Home
TTITLE12=Just a Little Bit of You
TTITLE13=Love is the Thing You Need
TTITLE14=The Eternal Light
TTITLE15=Pride and Joy
TTITLE16=You're My Best Friend, My Love
TTITLE17=Joyful Jukebox Music
TTITLE18=Love Don't Wanna Leave
EXTD=
EXTT0=
EXTT1=
EXTT2=
EXTT3=
EXTT4=
EXTT5=
EXTT6=
EXTT7=
EXTT8=
EXTT9=
EXTT10=
EXTT11=
EXTT12=
EXTT13=
EXTT14=
EXTT15=
EXTT16=
EXTT17=
EXTT18=
PLAYORDER=
